#tb 0: 1/8000
#media_type 0: audio
#codec_id 0: pcm_s16le
#sample_rate 0: 8000
#channel_layout_name 0: mono
0,          0,          0,      403,      806, 0x00000000
0,        403,        403,      403,      806, 0xdbdb2949
0,        806,        806,      403,      806, 0x1bea8557
0,       1209,       1209,      403,      806, 0x53179f26
0,       1612,       1612,      403,      806, 0x43508ae1
0,       2015,       2015,      403,      806, 0xab66a5fe
0,       2418,       2418,      403,      806, 0x1752947b
0,       2821,       2821,      403,      806, 0x4bc7ba09
0,       3224,       3224,      403,      806, 0x0e8a82fd
0,       3627,       3627,      403,      806, 0xd9cca62d
0,       4030,       4030,      403,      806, 0xefc07dd9
0,       4433,       4433,      403,      806, 0x57028697
0,       4836,       4836,      403,      806, 0x6ba48daf
0,       5239,       5239,      403,      806, 0x73229202
0,       5642,       5642,      403,      806, 0xaaa2a29f
0,       6045,       6045,      403,      806, 0x919c879a
0,       6448,       6448,      403,      806, 0x49476e74
0,       6851,       6851,      403,      806, 0x7ceaa4be
0,       7254,       7254,      403,      806, 0x816ea842
0,       7657,       7657,      403,      806, 0xda3b9271
0,       8060,       8060,      403,      806, 0x2d8ab50b
0,       8463,       8463,      403,      806, 0x89539a5c
0,       8866,       8866,      403,      806, 0xdd018442
0,       9269,       9269,      403,      806, 0x28d08ee1
0,       9672,       9672,      403,      806, 0x3556b32c
0,      10075,      10075,      403,      806, 0x148287f0
0,      10478,      10478,      403,      806, 0xd0e188fc
0,      10881,      10881,      403,      806, 0xbaae7f26
0,      11284,      11284,      403,      806, 0xf6e48696
0,      11687,      11687,      403,      806, 0x720b80d3
0,      12090,      12090,      403,      806, 0xe7249e86
0,      12493,      12493,      403,      806, 0xdc00a8d0
0,      12896,      12896,      403,      806, 0x016e9187
0,      13299,      13299,      403,      806, 0x762e93ab
0,      13702,      13702,      403,      806, 0xb8098d29
0,      14105,      14105,      403,      806, 0x69bcbaa4
0,      14508,      14508,      403,      806, 0xce90b32f
0,      14911,      14911,      403,      806, 0x962da543
0,      15314,      15314,      403,      806, 0x18468c64
0,      15717,      15717,      403,      806, 0x85a58af1
0,      16120,      16120,      403,      806, 0xd71eb37c
0,      16523,      16523,      403,      806, 0x4c0e7d2c
0,      16926,      16926,      403,      806, 0x8d7294e7
0,      17329,      17329,      403,      806, 0x3c9f9edc
0,      17732,      17732,      403,      806, 0xad7e7c70
0,      18135,      18135,      403,      806, 0x5bfdab2b
0,      18538,      18538,      403,      806, 0xda3782f5
0,      18941,      18941,      403,      806, 0xaeb8e751
0,      19344,      19344,      403,      806, 0x2fc320cf
0,      19747,      19747,      403,      806, 0x30e720c6
0,      20150,      20150,      403,      806, 0x1d8f20c8
0,      20553,      20553,      403,      806, 0x2fc920cd
